<svg aria-hidden="true" style="position: absolute; width: 0; height: 0; overflow: hidden;" version="1.1" xmlns="http://www.w3.org/2000/svg" xmlns:xlink="http://www.w3.org/1999/xlink">
<defs>
<symbol id="back" viewBox="0 0 32 32">
<path fill="#f7eb62" style="fill: var(--color1, #f7eb62)" d="M0.469 0.37h31.25v31.25h-31.25v-31.25z"></path>
<path fill="#bbb322" style="fill: var(--color2, #bbb322)" d="M28.732 3.967c0 0.847-0.498 1.534-1.112 1.534s-1.112-0.687-1.112-1.534c0-0.847 0.498-1.534 1.112-1.534s1.112 0.687 1.112 1.534z"></path>
<path fill="#bbb322" style="fill: var(--color2, #bbb322)" d="M27.438 27.466c0 0.751-0.516 1.361-1.153 1.361s-1.153-0.609-1.153-1.361c0-0.751 0.516-1.361 1.153-1.361s1.153 0.609 1.153 1.361z"></path>
<path fill="#bbb322" style="fill: var(--color2, #bbb322)" d="M5.688 5.985c0 1.061-0.747 1.921-1.669 1.921s-1.669-0.86-1.669-1.921c0-1.061 0.747-1.921 1.669-1.921s1.669 0.86 1.669 1.921z"></path>
<path fill="#bbb322" style="fill: var(--color2, #bbb322)" d="M3.857 12.61c0.435 0.309 1.090 0.075 1.462-0.523s0.322-1.333-0.112-1.642c-0.435-0.309-1.090-0.075-1.462 0.523s-0.322 1.333 0.112 1.642z"></path>
<path fill="#bbb322" style="fill: var(--color2, #bbb322)" d="M3.685 23.644c0.503 0.397 1.26 0.096 1.692-0.672s0.373-1.713-0.13-2.11c-0.503-0.397-1.26-0.096-1.692 0.672s-0.373 1.713 0.13 2.11z"></path>
<path fill="#bbb322" style="fill: var(--color2, #bbb322)" d="M4.817 29.117c0.725 0.441 1.816 0.106 2.437-0.747s0.537-1.903-0.187-2.344c-0.725-0.441-1.816-0.106-2.437 0.747s-0.537 1.903 0.187 2.344z"></path>
<path fill="#bbb322" style="fill: var(--color2, #bbb322)" d="M29.309 22.721c0 1.253-0.789 2.268-1.763 2.268s-1.763-1.015-1.763-2.268c0-1.253 0.789-2.268 1.763-2.268s1.763 1.015 1.763 2.268z"></path>
</symbol>
<symbol id="down" viewBox="0 0 32 32">
<path fill="#f7eb62" style="fill: var(--color1, #f7eb62)" d="M0.469 0.37h31.25v31.25h-31.25v-31.25z"></path>
<path fill="#bbb322" style="fill: var(--color2, #bbb322)" d="M28.732 3.967c0 0.847-0.498 1.534-1.112 1.534s-1.112-0.687-1.112-1.534c0-0.847 0.498-1.534 1.112-1.534s1.112 0.687 1.112 1.534z"></path>
<path fill="#bbb322" style="fill: var(--color2, #bbb322)" d="M27.438 27.466c0 0.751-0.516 1.361-1.153 1.361s-1.153-0.609-1.153-1.361c0-0.751 0.516-1.361 1.153-1.361s1.153 0.609 1.153 1.361z"></path>
<path fill="#bbb322" style="fill: var(--color2, #bbb322)" d="M5.688 5.985c0 1.061-0.747 1.921-1.669 1.921s-1.669-0.86-1.669-1.921c0-1.061 0.747-1.921 1.669-1.921s1.669 0.86 1.669 1.921z"></path>
<path fill="#bbb322" style="fill: var(--color2, #bbb322)" d="M3.857 12.61c0.435 0.309 1.090 0.075 1.462-0.523s0.322-1.333-0.112-1.642c-0.435-0.309-1.090-0.075-1.462 0.523s-0.322 1.333 0.112 1.642z"></path>
<path fill="#bbb322" style="fill: var(--color2, #bbb322)" d="M3.685 23.644c0.503 0.397 1.26 0.096 1.692-0.672s0.373-1.713-0.13-2.11c-0.503-0.397-1.26-0.096-1.692 0.672s-0.373 1.713 0.13 2.11z"></path>
<path fill="#bbb322" style="fill: var(--color2, #bbb322)" d="M4.817 29.117c0.725 0.441 1.816 0.106 2.437-0.747s0.537-1.903-0.187-2.344c-0.725-0.441-1.816-0.106-2.437 0.747s-0.537 1.903 0.187 2.344z"></path>
<path fill="#bbb322" style="fill: var(--color2, #bbb322)" d="M29.309 22.721c0 1.253-0.789 2.268-1.763 2.268s-1.763-1.015-1.763-2.268c0-1.253 0.789-2.268 1.763-2.268s1.763 1.015 1.763 2.268z"></path>
</symbol>
<symbol id="face" viewBox="0 0 32 32">
<path fill="#f7eb62" style="fill: var(--color1, #f7eb62)" d="M0.469 0.37h31.25v31.25h-31.25v-31.25z"></path>
<path fill="#bbb322" style="fill: var(--color2, #bbb322)" d="M28.732 3.967c0 0.847-0.498 1.534-1.112 1.534s-1.112-0.687-1.112-1.534c0-0.847 0.498-1.534 1.112-1.534s1.112 0.687 1.112 1.534z"></path>
<path fill="#bbb322" style="fill: var(--color2, #bbb322)" d="M27.438 27.466c0 0.751-0.516 1.361-1.153 1.361s-1.153-0.609-1.153-1.361c0-0.751 0.516-1.361 1.153-1.361s1.153 0.609 1.153 1.361z"></path>
<path fill="#bbb322" style="fill: var(--color2, #bbb322)" d="M5.688 5.985c0 1.061-0.747 1.921-1.669 1.921s-1.669-0.86-1.669-1.921c0-1.061 0.747-1.921 1.669-1.921s1.669 0.86 1.669 1.921z"></path>
<path fill="#bbb322" style="fill: var(--color2, #bbb322)" d="M3.857 12.61c0.435 0.309 1.090 0.075 1.462-0.523s0.322-1.333-0.112-1.642c-0.435-0.309-1.090-0.075-1.462 0.523s-0.322 1.333 0.112 1.642z"></path>
<path fill="#bbb322" style="fill: var(--color2, #bbb322)" d="M3.685 23.644c0.503 0.397 1.26 0.096 1.692-0.672s0.373-1.713-0.13-2.11c-0.503-0.397-1.26-0.096-1.692 0.672s-0.373 1.713 0.13 2.11z"></path>
<path fill="#bbb322" style="fill: var(--color2, #bbb322)" d="M4.817 29.117c0.725 0.441 1.816 0.106 2.437-0.747s0.537-1.903-0.187-2.344c-0.725-0.441-1.816-0.106-2.437 0.747s-0.537 1.903 0.187 2.344z"></path>
<path fill="#bbb322" style="fill: var(--color2, #bbb322)" d="M29.309 22.721c0 1.253-0.789 2.268-1.763 2.268s-1.763-1.015-1.763-2.268c0-1.253 0.789-2.268 1.763-2.268s1.763 1.015 1.763 2.268z"></path>
<path fill="#fff" stroke= "#000" stroke-width = "0.25" style="fill: var(--color3, #fff)" d="M16.975 12.31c0 2.589-2.025 4.688-4.522 4.688s-4.522-2.099-4.522-4.688c0-2.589 2.025-4.688 4.522-4.688s4.522 2.099 4.522 4.688z"></path>
<path fill="#34c0e9" style="fill: var(--color4, #34c0e9)" d="M15.821 12.857c0 1.478-1.169 2.675-2.611 2.675s-2.611-1.198-2.611-2.675c0-1.478 1.169-2.675 2.611-2.675s2.611 1.198 2.611 2.675z"></path>
<path fill="#000" style="fill: var(--color5, #000)" d="M14.76 12.979c0 0.873-0.663 1.581-1.481 1.581s-1.481-0.708-1.481-1.581c0-0.873 0.663-1.581 1.481-1.581s1.481 0.708 1.481 1.581z"></path>
<path fill="#fff" style="fill: var(--color3, #fff)" d="M12.96 12.24c0 0.296-0.225 0.536-0.502 0.536s-0.502-0.24-0.502-0.536c0-0.296 0.225-0.536 0.502-0.536s0.502 0.24 0.502 0.536z"></path>
<path fill="#000" style="fill: var(--color5, #000)" d="M15.888 5.795l-0.576-0.47-1.603 2.238 0.576 0.47 1.603-2.238z"></path>
<path fill="#000" style="fill: var(--color5, #000)" d="M8.915 6.056l0.576-0.47 1.603 2.238-0.576 0.47-1.603-2.238z"></path>
<path fill="#000" style="fill: var(--color5, #000)" d="M12.019 4.999l0.777-0.018 0.068 2.761-0.777 0.018-0.068-2.761z"></path>
<path fill="#fff" stroke= "#000" stroke-width = "0.25" style="fill: var(--color3, #fff)" d="M16.823 12.276c0 2.589 2.025 4.688 4.522 4.688s4.522-2.099 4.522-4.688c0-2.589-2.025-4.688-4.522-4.688s-4.522 2.099-4.522 4.688z"></path>
<path fill="#34c0e9" style="fill: var(--color4, #34c0e9)" d="M17.977 12.824c0 1.478 1.169 2.675 2.611 2.675s2.611-1.198 2.611-2.675c0-1.478-1.169-2.675-2.611-2.675s-2.611 1.198-2.611 2.675z"></path>
<path fill="#000" style="fill: var(--color5, #000)" d="M19.038 12.946c0 0.873 0.663 1.581 1.481 1.581s1.481-0.708 1.481-1.581c0-0.873-0.663-1.581-1.481-1.581s-1.481 0.708-1.481 1.581z"></path>
<path fill="#fff" style="fill: var(--color3, #fff)" d="M20.838 12.206c0 0.296 0.225 0.536 0.502 0.536s0.502-0.24 0.502-0.536c0-0.296-0.225-0.536-0.502-0.536s-0.502 0.24-0.502 0.536z"></path>
<path fill="#000" style="fill: var(--color5, #000)" d="M17.91 5.761l0.576-0.47 1.603 2.238-0.576 0.47-1.603-2.238z"></path>
<path fill="#000" style="fill: var(--color5, #000)" d="M24.883 6.023l-0.576-0.47-1.603 2.238 0.576 0.47 1.603-2.238z"></path>
<path fill="#000" style="fill: var(--color5, #000)" d="M21.779 4.965l-0.777-0.018-0.068 2.761 0.777 0.018 0.068-2.761z"></path>
<path fill="#f55" style="fill: var(--color6, #f55)" d="M8.832 16.909c0 0.068-0.052 0.124-0.116 0.124s-0.116-0.055-0.116-0.124c0-0.068 0.052-0.124 0.116-0.124s0.116 0.055 0.116 0.124z"></path>
<path fill="#f55" style="fill: var(--color6, #f55)" d="M8.391 17.848c0 0.068-0.052 0.124-0.116 0.124s-0.116-0.055-0.116-0.124c0-0.068 0.052-0.124 0.116-0.124s0.116 0.055 0.116 0.124z"></path>
<path fill="#f55" style="fill: var(--color6, #f55)" d="M9.868 17.25c0 0.068-0.052 0.124-0.116 0.124s-0.116-0.055-0.116-0.124c0-0.068 0.052-0.124 0.116-0.124s0.116 0.055 0.116 0.124z"></path>
<path fill="#f55" style="fill: var(--color6, #f55)" d="M25.009 16.892c0 0.068 0.052 0.124 0.116 0.124s0.116-0.055 0.116-0.124c0-0.068-0.052-0.124-0.116-0.124s-0.116 0.055-0.116 0.124z"></path>
<path fill="#f55" style="fill: var(--color6, #f55)" d="M25.45 17.831c0 0.068 0.052 0.124 0.116 0.124s0.116-0.055 0.116-0.124c0-0.068-0.052-0.124-0.116-0.124s-0.116 0.055-0.116 0.124z"></path>
<path fill="#f55" style="fill: var(--color6, #f55)" d="M23.972 17.233c0 0.068 0.052 0.124 0.116 0.124s0.116-0.055 0.116-0.124c0-0.068-0.052-0.124-0.116-0.124s-0.116 0.055-0.116 0.124z"></path>
<path fill="#800000" stroke= "#000" stroke-width = "0.25" style="fill: var(--color7, #800000)" d="M9.15 17.789c0 0 0.716 3.147 2.18 5.073s3.675 2.631 5.366 2.606c1.686-0.025 3.795-0.503 5.32-2.364s2.465-5.104 2.465-5.104c0 0-5.743 2.167-8.011 2.187-2.914 0.026-7.32-2.399-7.32-2.399z"></path>
<path fill="#fff" stroke= "#000" stroke-width = "0.25" style="fill: var(--color3, #fff)" d="M14.19 19.967l2.036 0.331-0.282 1.979-2.036-0.331 0.282-1.979z"></path>
<path fill="#fff" stroke= "#000" stroke-width = "0.25" style="fill: var(--color3, #fff)" d="M19.516 19.851l-2.036 0.331 0.282 1.979 2.036-0.331-0.282-1.979z"></path>
<path fill="#ff8080" stroke= "#000" stroke-width = "0.25" style="fill: var(--color8, #ff8080)" d="M13.516 24.652c0 0 0.849-1.196 1.523-1.253 0.664-0.057 1.995 0.62 1.995 0.62s0.686-0.721 1.34-0.749c0.792-0.033 1.982 1.287 1.982 1.287s-2.415 0.995-3.594 1.034c-1.203 0.040-3.246-0.939-3.246-0.939z"></path>
</symbol>
<symbol id="left" viewBox="0 0 32 32">
<path fill="#f7eb62" style="fill: var(--color1, #f7eb62)" d="M0.469 0.37h31.25v31.25h-31.25v-31.25z"></path>
<path fill="#bbb322" style="fill: var(--color2, #bbb322)" d="M28.732 3.967c0 0.847-0.498 1.534-1.112 1.534s-1.112-0.687-1.112-1.534c0-0.847 0.498-1.534 1.112-1.534s1.112 0.687 1.112 1.534z"></path>
<path fill="#bbb322" style="fill: var(--color2, #bbb322)" d="M27.438 27.466c0 0.751-0.516 1.361-1.153 1.361s-1.153-0.609-1.153-1.361c0-0.751 0.516-1.361 1.153-1.361s1.153 0.609 1.153 1.361z"></path>
<path fill="#bbb322" style="fill: var(--color2, #bbb322)" d="M5.688 5.985c0 1.061-0.747 1.921-1.669 1.921s-1.669-0.86-1.669-1.921c0-1.061 0.747-1.921 1.669-1.921s1.669 0.86 1.669 1.921z"></path>
<path fill="#bbb322" style="fill: var(--color2, #bbb322)" d="M3.857 12.61c0.435 0.309 1.090 0.075 1.462-0.523s0.322-1.333-0.112-1.642c-0.435-0.309-1.090-0.075-1.462 0.523s-0.322 1.333 0.112 1.642z"></path>
<path fill="#bbb322" style="fill: var(--color2, #bbb322)" d="M3.685 23.644c0.503 0.397 1.26 0.096 1.692-0.672s0.373-1.713-0.13-2.11c-0.503-0.397-1.26-0.096-1.692 0.672s-0.373 1.713 0.13 2.11z"></path>
<path fill="#bbb322" style="fill: var(--color2, #bbb322)" d="M4.817 29.117c0.725 0.441 1.816 0.106 2.437-0.747s0.537-1.903-0.187-2.344c-0.725-0.441-1.816-0.106-2.437 0.747s-0.537 1.903 0.187 2.344z"></path>
<path fill="#bbb322" style="fill: var(--color2, #bbb322)" d="M29.309 22.721c0 1.253-0.789 2.268-1.763 2.268s-1.763-1.015-1.763-2.268c0-1.253 0.789-2.268 1.763-2.268s1.763 1.015 1.763 2.268z"></path>
</symbol>
<symbol id="right" viewBox="0 0 32 32">
<path fill="#f7eb62" style="fill: var(--color1, #f7eb62)" d="M0.469 0.37h31.25v31.25h-31.25v-31.25z"></path>
<path fill="#bbb322" style="fill: var(--color2, #bbb322)" d="M28.732 3.967c0 0.847-0.498 1.534-1.112 1.534s-1.112-0.687-1.112-1.534c0-0.847 0.498-1.534 1.112-1.534s1.112 0.687 1.112 1.534z"></path>
<path fill="#bbb322" style="fill: var(--color2, #bbb322)" d="M27.438 27.466c0 0.751-0.516 1.361-1.153 1.361s-1.153-0.609-1.153-1.361c0-0.751 0.516-1.361 1.153-1.361s1.153 0.609 1.153 1.361z"></path>
<path fill="#bbb322" style="fill: var(--color2, #bbb322)" d="M5.688 5.985c0 1.061-0.747 1.921-1.669 1.921s-1.669-0.86-1.669-1.921c0-1.061 0.747-1.921 1.669-1.921s1.669 0.86 1.669 1.921z"></path>
<path fill="#bbb322" style="fill: var(--color2, #bbb322)" d="M3.857 12.61c0.435 0.309 1.090 0.075 1.462-0.523s0.322-1.333-0.112-1.642c-0.435-0.309-1.090-0.075-1.462 0.523s-0.322 1.333 0.112 1.642z"></path>
<path fill="#bbb322" style="fill: var(--color2, #bbb322)" d="M3.685 23.644c0.503 0.397 1.26 0.096 1.692-0.672s0.373-1.713-0.13-2.11c-0.503-0.397-1.26-0.096-1.692 0.672s-0.373 1.713 0.13 2.11z"></path>
<path fill="#bbb322" style="fill: var(--color2, #bbb322)" d="M4.817 29.117c0.725 0.441 1.816 0.106 2.437-0.747s0.537-1.903-0.187-2.344c-0.725-0.441-1.816-0.106-2.437 0.747s-0.537 1.903 0.187 2.344z"></path>
<path fill="#bbb322" style="fill: var(--color2, #bbb322)" d="M29.309 22.721c0 1.253-0.789 2.268-1.763 2.268s-1.763-1.015-1.763-2.268c0-1.253 0.789-2.268 1.763-2.268s1.763 1.015 1.763 2.268z"></path>
</symbol>
<symbol id="top" viewBox="0 0 32 32">
<path fill="#f7eb62" style="fill: var(--color1, #f7eb62)" d="M0.469 0.37h31.25v31.25h-31.25v-31.25z"></path>
<path fill="#bbb322" style="fill: var(--color2, #bbb322)" d="M28.732 3.967c0 0.847-0.498 1.534-1.112 1.534s-1.112-0.687-1.112-1.534c0-0.847 0.498-1.534 1.112-1.534s1.112 0.687 1.112 1.534z"></path>
<path fill="#bbb322" style="fill: var(--color2, #bbb322)" d="M27.438 27.466c0 0.751-0.516 1.361-1.153 1.361s-1.153-0.609-1.153-1.361c0-0.751 0.516-1.361 1.153-1.361s1.153 0.609 1.153 1.361z"></path>
<path fill="#bbb322" style="fill: var(--color2, #bbb322)" d="M5.688 5.985c0 1.061-0.747 1.921-1.669 1.921s-1.669-0.86-1.669-1.921c0-1.061 0.747-1.921 1.669-1.921s1.669 0.86 1.669 1.921z"></path>
<path fill="#bbb322" style="fill: var(--color2, #bbb322)" d="M3.857 12.61c0.435 0.309 1.090 0.075 1.462-0.523s0.322-1.333-0.112-1.642c-0.435-0.309-1.090-0.075-1.462 0.523s-0.322 1.333 0.112 1.642z"></path>
<path fill="#bbb322" style="fill: var(--color2, #bbb322)" d="M3.685 23.644c0.503 0.397 1.26 0.096 1.692-0.672s0.373-1.713-0.13-2.11c-0.503-0.397-1.26-0.096-1.692 0.672s-0.373 1.713 0.13 2.11z"></path>
<path fill="#bbb322" style="fill: var(--color2, #bbb322)" d="M4.817 29.117c0.725 0.441 1.816 0.106 2.437-0.747s0.537-1.903-0.187-2.344c-0.725-0.441-1.816-0.106-2.437 0.747s-0.537 1.903 0.187 2.344z"></path>
<path fill="#bbb322" style="fill: var(--color2, #bbb322)" d="M29.309 22.721c0 1.253-0.789 2.268-1.763 2.268s-1.763-1.015-1.763-2.268c0-1.253 0.789-2.268 1.763-2.268s1.763 1.015 1.763 2.268z"></path>
</symbol>
</defs>
</svg>