<svg aria-hidden="true" style="position: absolute; width: 0; height: 0; overflow: hidden;" version="1.1" xmlns="http://www.w3.org/2000/svg" xmlns:xlink="http://www.w3.org/1999/xlink">
<defs>
<symbol id="icon-circle" viewBox="0 0 32 32">
<path d="M16.297 4.54c0 0-0 0-0 0-6.296 0-11.399 5.104-11.399 11.399 0 0 0 0 0 0v0c0 6.296 5.104 11.399 11.399 11.399 0 0 0 0 0 0v0c6.296-0 11.399-5.104 11.399-11.399v0c0 0 0-0 0-0 0-6.296-5.104-11.399-11.399-11.399v0zM21.742 9.144c0.951 0 1.723 0.797 1.723 1.78v0c0 0 0 0 0 0 0 0.983-0.771 1.78-1.723 1.78v0c-0.951 0-1.723-0.797-1.723-1.78 0-0 0-0 0-0v0c0-0.983 0.771-1.78 1.723-1.78v0zM11.198 9.303c0.951 0 1.723 0.797 1.723 1.78v0c0 0 0 0 0 0 0 0.983-0.771 1.78-1.723 1.78v0c-0.951 0-1.723-0.797-1.723-1.78 0-0 0-0 0-0v0c0-0.983 0.771-1.78 1.723-1.78v0zM16.757 10.103l6.342 6.698-6.698 6.342-6.342-6.698 6.698-6.342z"></path>
<path d="M12.654 11.457c0 0.65-0.487 1.177-1.087 1.177s-1.087-0.527-1.087-1.177c0-0.65 0.487-1.177 1.087-1.177s1.087 0.527 1.087 1.177z"></path>
<path d="M22.636 10.806c0 0.666-0.54 1.206-1.206 1.206s-1.206-0.54-1.206-1.206c0-0.666 0.54-1.206 1.206-1.206s1.206 0.54 1.206 1.206z"></path>
</symbol>
<symbol id="icon-square" viewBox="0 0 32 32">
<path d="M2.508 3.455v7.133c0.642-0.227 1.389-0.361 2.172-0.365h0.002c0 0 0 0 0 0 3.201 0 5.796 2.171 5.796 4.849v0c0 0 0 0 0 0 0 2.678-2.595 4.849-5.796 4.849-0 0-0 0-0 0v0c-0.785-0.004-1.531-0.138-2.212-0.377l0.038 0.012v9.927h26.027v-11.363c-0.805 0.383-1.767 0.61-2.793 0.615h-0.002c-0 0-0 0-0 0-3.201 0-5.796-2.171-5.796-4.849v0c0 0 0 0 0 0 0-2.678 2.595-4.849 5.796-4.849 0 0 0 0 0 0v0c1.026 0.001 1.989 0.224 2.824 0.615l-0.029-0.013v-6.184h-26.027zM11.704 21.123h8.36l-5.239 5.072-3.121-5.072z"></path>
<path d="M7.747 16.034c0 1-0.811 1.811-1.811 1.811s-1.811-0.811-1.811-1.811c0-1 0.811-1.811 1.811-1.811s1.811 0.811 1.811 1.811z"></path>
<path d="M26.413 12.134c0 1-0.811 1.811-1.811 1.811s-1.811-0.811-1.811-1.811c0-1 0.811-1.811 1.811-1.811s1.811 0.811 1.811 1.811z"></path>
</symbol>
<symbol id="icon-star" viewBox="0 0 32 32">
<path d="M15.79 0.787l-6.094 8.271-9.13 3.445 5.532 8.732 0.282 10.299 9.513-2.875 9.304 2.92 0.347-10.509 5.468-8.495-9.298-3.62-5.924-8.17zM24.911 12.407l-0.305 8.357-8.36-8.181-7.762 8.255-0.931-8.351 8.597 0.002-0.019-0.019 8.78-0.063zM13.509 20.037c0 0 0 0 0 0 1.046 0 1.894 0.919 1.894 2.052v0c0 1.133-0.848 2.052-1.894 2.052-0 0-0 0-0 0v0c-1.046-0-1.894-0.919-1.894-2.052v0c0-1.133 0.848-2.052 1.894-2.052v0zM8.247 24.489c0.305-0.029 2.494 0.46 8.454 2.019 0.724 0.189 1.273-1.85 1.273-1.85s-0.192 2.045-1.15 2.464c-0.929 0.406-2.878-0.631-2.878-0.631s-6.281-1.947-5.699-2.003z"></path>
<path d="M11.639 14.616c0 0.558-0.452 1.010-1.010 1.010s-1.010-0.452-1.010-1.010c0-0.558 0.452-1.010 1.010-1.010s1.010 0.452 1.010 1.010z"></path>
<path d="M22.563 14.642c0 0.558-0.452 1.010-1.010 1.010s-1.010-0.452-1.010-1.010c0-0.558 0.452-1.010 1.010-1.010s1.010 0.452 1.010 1.010z"></path>
</symbol>
<symbol id="icon-heart" viewBox="0 0 32 32">
<path d="M8.715 6.098c-6.205 0.096-12.171 6.768-0.281 17.039 1.777 1.535 6.876 6.413 6.876 6.413l0.031-9.275-0.148 0.002-1.375 3.551-1.232-3.603-3.802-0.21 3.046-2.285-0.975-3.681 3.114 2.191 1.387-0.895 0.019-5.628c-1.379-2.528-4.041-3.659-6.661-3.619zM12.307 7.312l0.36 3.816-3.427-1.472c-3.952 2.815-4.021 1.745-3.932 0.518l-2.514 1.086 1.786-2.632c0.913-0.156 0.788 0.727 0.729 1.545l2.561-1.107 1.371 0.589c0.839-0.597 1.843-1.36 3.068-2.344zM6.88 11.898c1.114 0 2.016 0.814 2.016 1.818v0c0 0 0 0 0 0 0 1.004-0.903 1.818-2.016 1.818v0c-1.114 0-2.016-0.814-2.016-1.818 0-0 0-0 0-0v0c0-1.004 0.903-1.818 2.016-1.818v0z"></path>
<path d="M23.412 6.098c-2.62-0.041-5.282 1.091-6.661 3.619l0.013 3.882 1.646 2.015 2.833-0.877-1.605 2.494 1.709 2.423-2.868-0.756-1.691 2.26 0.028 8.391c0 0 5.098-4.877 6.875-6.413 11.89-10.271 5.924-16.943-0.281-17.039zM21.822 8.824c1.114 0 2.016 0.814 2.016 1.818v0c0 0 0 0 0 0 0 1.004-0.903 1.818-2.016 1.818v0c-1.114 0-2.016-0.814-2.016-1.818 0-0 0-0 0-0v0c0-1.004 0.903-1.818 2.016-1.818v0zM25.709 10.359l0.088 3.64-5.351-0.614 4.649-0.088c-3.311-1.964-0.007-0.734 0-1.097l0.614-1.842z"></path>
<path d="M22.478 10.355c0 0.389-0.33 0.705-0.738 0.705s-0.738-0.315-0.738-0.705c0-0.389 0.33-0.705 0.738-0.705s0.738 0.315 0.738 0.705z"></path>
<path d="M7.409 13.51c0 0.644-0.281 1.165-0.628 1.165s-0.628-0.522-0.628-1.165c0-0.644 0.281-1.165 0.628-1.165s0.628 0.522 0.628 1.165z"></path>
</symbol>
<symbol id="icon-poly" viewBox="0 0 32 32">
<path d="M16.472 6.251c-9.102-0.164-15.001 22.82-15.001 22.82h28.848c0 0-4.951-22.66-13.847-22.82zM16.96 14.405h4.794c0 0 0 0 0 0 0 0.932-0.477 1.746-1.187 2.186l-0.011 0.006c-0.344 0.213-0.757 0.339-1.198 0.339s-0.855-0.126-1.21-0.346l0.011 0.006c-0.721-0.446-1.198-1.26-1.198-2.192 0 0 0 0 0-0v0zM10.556 14.434h4.793c0 0 0 0 0 0 0 0.932-0.477 1.746-1.187 2.186l-0.011 0.006c-0.344 0.213-0.757 0.339-1.198 0.339s-0.855-0.126-1.21-0.346l0.011 0.006c-0.721-0.446-1.198-1.26-1.198-2.192 0 0 0 0 0-0v0zM10.765 20.417h10.848v2.598h-10.848v-2.598z"></path>
<path d="M12.201 15.399c0.018-0.093 0.055-0.191 0.111-0.282 0.177-0.29 0.498-0.443 0.83-0.43l0.005 0c0.164 0.006 0.337 0.055 0.494 0.152 0.249 0.152 0.411 0.389 0.468 0.643l0 0.001c0.050 0.223 0.018 0.46-0.106 0.665-0.108 0.177-0.269 0.302-0.453 0.371l0.003-0.001c-0.276 0.103-0.6 0.079-0.879-0.091-0.128-0.078-0.232-0.178-0.312-0.292l0.004 0.005 0.792-0.507z"></path>
<path d="M18.418 15.357c0.018-0.093 0.055-0.191 0.111-0.282 0.177-0.29 0.498-0.443 0.83-0.43l0.005 0c0.164 0.006 0.337 0.055 0.494 0.152 0.249 0.152 0.411 0.389 0.468 0.643l0 0.001c0.050 0.223 0.018 0.46-0.106 0.665-0.108 0.177-0.269 0.302-0.453 0.371l0.003-0.001c-0.276 0.103-0.6 0.079-0.879-0.091-0.128-0.078-0.232-0.178-0.312-0.292l0.004 0.005 0.792-0.507z"></path>
</symbol>
</defs>
</svg>
