<?xml version="1.0" encoding="UTF-8" standalone="no"?>
<!-- Created with Inkscape (http://www.inkscape.org/) -->

<svg
   width="512"
   height="512"
   viewBox="0 0 512 512"
   version="1.1"
   id="svg5"
   inkscape:version="1.1.1 (c3084ef, 2021-09-22)"
   sodipodi:docname="circle.svg"
   xmlns:inkscape="http://www.inkscape.org/namespaces/inkscape"
   xmlns:sodipodi="http://sodipodi.sourceforge.net/DTD/sodipodi-0.dtd"
   xmlns="http://www.w3.org/2000/svg"
   xmlns:svg="http://www.w3.org/2000/svg">
  <sodipodi:namedview
     id="namedview7"
     pagecolor="#ffffff"
     bordercolor="#666666"
     borderopacity="1.0"
     inkscape:pageshadow="2"
     inkscape:pageopacity="0.0"
     inkscape:pagecheckerboard="0"
     inkscape:document-units="px"
     showgrid="false"
     inkscape:zoom="1.0883509"
     inkscape:cx="285.29402"
     inkscape:cy="289.42871"
     inkscape:window-width="1312"
     inkscape:window-height="872"
     inkscape:window-x="0"
     inkscape:window-y="0"
     inkscape:window-maximized="0"
     inkscape:current-layer="layer1" />
  <defs
     id="defs2" />
  <g
     inkscape:label="Layer 1"
     inkscape:groupmode="layer"
     id="layer1">
    <path
       id="path1959"
       style="fill:#000000;stroke-width:3.35341;stroke-dasharray:0.335341, 0.335341"
       d="M 260.75195 72.638672 A 182.38603 182.38603 0 0 0 78.365234 255.02539 A 182.38603 182.38603 0 0 0 260.75195 437.41016 A 182.38603 182.38603 0 0 0 443.13672 255.02539 A 182.38603 182.38603 0 0 0 260.75195 72.638672 z M 347.87109 146.31055 A 27.56464 28.483461 0 0 1 375.43555 174.79297 A 27.56464 28.483461 0 0 1 347.87109 203.27734 A 27.56464 28.483461 0 0 1 320.30664 174.79297 A 27.56464 28.483461 0 0 1 347.87109 146.31055 z M 179.16992 148.84961 A 27.56464 28.483461 0 0 1 206.73438 177.33203 A 27.56464 28.483461 0 0 1 179.16992 205.81641 A 27.56464 28.483461 0 0 1 151.60547 177.33203 A 27.56464 28.483461 0 0 1 179.16992 148.84961 z M 268.11914 161.64453 L 369.5957 268.82031 L 262.42188 370.29688 L 160.94336 263.12305 L 268.11914 161.64453 z " />
    <ellipse
       style="fill:#000000;stroke-width:4.88846;stroke-dasharray:0.488846, 0.488846"
       id="path2635"
       cx="185.07848"
       cy="183.30486"
       rx="17.386927"
       ry="18.835836" />
    <circle
       style="fill:#000000;stroke-width:3.1;stroke-dasharray:0.31, 0.31"
       id="path2637"
       cx="342.88272"
       cy="172.90077"
       r="19.295248" />
  </g>
</svg>
