<?xml version="1.0" encoding="UTF-8" standalone="no"?>
<!-- Created with Inkscape (http://www.inkscape.org/) -->

<svg
   width="120"
   height="120"
   viewBox="0 0 399 432.23"
   version="1.1"
   id="sun"
   inkscape:version="1.1.1 (c3084ef, 2021-09-22)"
   sodipodi:docname="sun.svg"
   xmlns:inkscape="http://www.inkscape.org/namespaces/inkscape"
   xmlns:sodipodi="http://sodipodi.sourceforge.net/DTD/sodipodi-0.dtd"
   xmlns="http://www.w3.org/2000/svg"
   xmlns:svg="http://www.w3.org/2000/svg">
  <sodipodi:namedview
     id="namedview7"
     pagecolor="#ffffff"
     bordercolor="#666666"
     borderopacity="1.0"
     inkscape:pageshadow="2"
     inkscape:pageopacity="0.0"
     inkscape:pagecheckerboard="0"
     inkscape:document-units="px"
     showgrid="false"
     inkscape:zoom="5.4166667"
     inkscape:cx="59.907692"
     inkscape:cy="60"
     inkscape:window-width="1312"
     inkscape:window-height="872"
     inkscape:window-x="0"
     inkscape:window-y="0"
     inkscape:window-maximized="0"
     inkscape:current-layer="layer1" />
  <defs
     id="defs2" />
  <g
     inkscape:label="Layer 1"
     inkscape:groupmode="layer"
     id="layer1">
    <ellipse
       style="fill:#000000;fill-rule:evenodd;stroke-width:0"
       id="path846"
       ry="12.092309"
       rx="11.907692"
       cy="45.507694"
       cx="56.769234" />
    <path
       style="fill:none;stroke:#000000;stroke-width:1px;stroke-linecap:butt;stroke-linejoin:miter;stroke-opacity:1"
       d="m 47.870601,23.817587 c -0.532432,2.791122 1.721974,3.594296 3.340149,6.951113 0.705487,1.463494 3.681317,-0.263635 4.100776,-1.833215 0.735159,-2.750903 -0.307448,-7.174292 -3.037304,-7.984119 -2.092529,-0.62076 -3.994633,0.722218 -4.403621,2.866221 z"
       id="path1178"
       sodipodi:nodetypes="sssss" />
    <path
       style="fill:none;stroke:#000000;stroke-width:1.1508px;stroke-linecap:butt;stroke-linejoin:miter;stroke-opacity:1"
       d="m 65.922701,18.378667 c -2.417382,1.837223 -2.120261,5.292875 -4.096321,10.248167 -0.861517,2.160393 1.725534,4.240749 3.134443,3.353536 2.469305,-1.554966 5.522556,-6.759938 5.034629,-10.799519 -0.374012,-3.096483 -2.215834,-4.213445 -4.072751,-2.802184 z"
       id="path1178-1"
       sodipodi:nodetypes="sssss" />
    <path
       style="fill:none;stroke:#000000;stroke-width:0.951348px;stroke-linecap:butt;stroke-linejoin:miter;stroke-opacity:1"
       d="m 74.509724,31.539464 c -2.855784,0.07978 -2.964109,2.212512 -5.729421,4.287579 -1.205611,0.904682 1.345734,3.174291 2.987248,3.234621 2.876982,0.105737 6.843844,-1.673744 6.817709,-4.224404 -0.02003,-1.955171 -1.881864,-3.359082 -4.075536,-3.297796 z"
       id="path1178-6"
       sodipodi:nodetypes="sssss" />
    <path
       style="fill:none;stroke:#000000;stroke-width:1.15483px;stroke-linecap:butt;stroke-linejoin:miter;stroke-opacity:1"
       d="m 82.565823,43.368174 c -3.307604,-1.607499 -5.233884,0.165825 -10.125994,0.329957 -2.132848,0.07156 -1.157239,3.523883 0.654193,4.53934 3.174785,1.77973 9.18022,2.575442 11.307335,0.363233 1.63051,-1.695736 0.705201,-3.997727 -1.835534,-5.23253 z"
       id="path1178-2"
       sodipodi:nodetypes="sssss" />
    <path
       style="fill:none;stroke:#000000;stroke-width:1px;stroke-linecap:butt;stroke-linejoin:miter;stroke-opacity:1"
       d="m 67.112192,57.591703 c 0.888691,2.698902 3.249651,2.307364 6.293315,4.457438 1.326967,0.937382 3.09104,-2.016696 2.696258,-3.592663 -0.691912,-2.762099 -3.749797,-6.124053 -6.529719,-5.507643 -2.130908,0.472499 -3.142502,2.569703 -2.459854,4.642868 z"
       id="path1178-7"
       sodipodi:nodetypes="sssss" />
    <path
       style="fill:none;stroke:#000000;stroke-width:1px;stroke-linecap:butt;stroke-linejoin:miter;stroke-opacity:1"
       d="m 65.959991,65.995647 c 0.198224,-2.834528 -2.135418,-3.365136 -4.13965,-6.506755 -0.8738,-1.369671 -3.624211,0.69764 -3.854885,2.305842 -0.404288,2.818597 1.154705,7.08743 3.961241,7.568353 2.151306,0.368644 3.881027,-1.190093 4.033294,-3.36744 z"
       id="path1178-4"
       sodipodi:nodetypes="sssss" />
    <path
       style="fill:none;stroke:#000000;stroke-width:1.1508px;stroke-linecap:butt;stroke-linejoin:miter;stroke-opacity:1"
       d="m 48.678818,73.533637 c 2.182857,-2.110512 1.478685,-5.50668 2.854152,-10.66108 0.599674,-2.247198 -2.215492,-4.006622 -3.509448,-2.958837 -2.267831,1.836388 -4.683352,7.366248 -3.720579,11.319645 0.737997,3.030421 2.69911,3.92146 4.375875,2.300272 z"
       id="path1178-1-6"
       sodipodi:nodetypes="sssss" />
    <path
       style="fill:none;stroke:#000000;stroke-width:0.951348px;stroke-linecap:butt;stroke-linejoin:miter;stroke-opacity:1"
       d="m 38.593988,61.48209 c 2.826252,-0.417335 2.681305,-2.547892 5.181483,-4.935769 1.090019,-1.041061 -1.712096,-2.992632 -3.349207,-2.858188 -2.869265,0.235634 -6.597539,2.472266 -6.269596,5.001891 0.251376,1.939047 2.266334,3.112648 4.43732,2.792066 z"
       id="path1178-6-7"
       sodipodi:nodetypes="sssss" />
    <path
       style="fill:none;stroke:#000000;stroke-width:1.15483px;stroke-linecap:butt;stroke-linejoin:miter;stroke-opacity:1"
       d="m 29.194064,50.690403 c 3.474664,1.20458 5.177437,-0.784337 10.015704,-1.526529 2.109374,-0.323581 0.731883,-3.63611 -1.187038,-4.429956 -3.363171,-1.391326 -9.420575,-1.470412 -11.270809,0.978081 -1.41827,1.876859 -0.226919,4.053103 2.442143,4.978404 z"
       id="path1178-2-9"
       sodipodi:nodetypes="sssss" />
    <path
       style="fill:none;stroke:#000000;stroke-width:1px;stroke-linecap:butt;stroke-linejoin:miter;stroke-opacity:1"
       d="m 42.854967,34.737247 c -1.201983,-2.574699 -3.49998,-1.906384 -6.776799,-3.680973 -1.428617,-0.773679 -2.830526,2.368483 -2.251931,3.886624 1.014071,2.66075 4.448495,5.637011 7.135883,4.695801 2.059977,-0.72147 2.816151,-2.923693 1.892847,-4.901452 z"
       id="path1178-7-0"
       sodipodi:nodetypes="sssss" />
  </g>
</svg>
