<!-- Generated by IcoMoon.io -->
<svg version="1.1" xmlns="http://www.w3.org/2000/svg" width="32" height="32" viewBox="0 0 32 32">
<title>circle</title>
<path d="M16.297 4.54c0 0-0 0-0 0-6.296 0-11.399 5.104-11.399 11.399 0 0 0 0 0 0v0c0 6.296 5.104 11.399 11.399 11.399 0 0 0 0 0 0v0c6.296-0 11.399-5.104 11.399-11.399v0c0 0 0-0 0-0 0-6.296-5.104-11.399-11.399-11.399v0zM21.742 9.144c0.951 0 1.723 0.797 1.723 1.78v0c0 0 0 0 0 0 0 0.983-0.771 1.78-1.723 1.78v0c-0.951 0-1.723-0.797-1.723-1.78 0-0 0-0 0-0v0c0-0.983 0.771-1.78 1.723-1.78v0zM11.198 9.303c0.951 0 1.723 0.797 1.723 1.78v0c0 0 0 0 0 0 0 0.983-0.771 1.78-1.723 1.78v0c-0.951 0-1.723-0.797-1.723-1.78 0-0 0-0 0-0v0c0-0.983 0.771-1.78 1.723-1.78v0zM16.757 10.103l6.342 6.698-6.698 6.342-6.342-6.698 6.698-6.342z"></path>
<path d="M12.654 11.457c0 0.65-0.487 1.177-1.087 1.177s-1.087-0.527-1.087-1.177c0-0.65 0.487-1.177 1.087-1.177s1.087 0.527 1.087 1.177z"></path>
<path d="M22.636 10.806c0 0.666-0.54 1.206-1.206 1.206s-1.206-0.54-1.206-1.206c0-0.666 0.54-1.206 1.206-1.206s1.206 0.54 1.206 1.206z"></path>
</svg>
