<!-- Generated by IcoMoon.io -->
<svg version="1.1" xmlns="http://www.w3.org/2000/svg" width="32" height="32" viewBox="0 0 32 32">
<title>heart</title>
<path d="M8.715 6.098c-6.205 0.096-12.171 6.768-0.281 17.039 1.777 1.535 6.876 6.413 6.876 6.413l0.031-9.275-0.148 0.002-1.375 3.551-1.232-3.603-3.802-0.21 3.046-2.285-0.975-3.681 3.114 2.191 1.387-0.895 0.019-5.628c-1.379-2.528-4.041-3.659-6.661-3.619zM12.307 7.312l0.36 3.816-3.427-1.472c-3.952 2.815-4.021 1.745-3.932 0.518l-2.514 1.086 1.786-2.632c0.913-0.156 0.788 0.727 0.729 1.545l2.561-1.107 1.371 0.589c0.839-0.597 1.843-1.36 3.068-2.344zM6.88 11.898c1.114 0 2.016 0.814 2.016 1.818v0c0 0 0 0 0 0 0 1.004-0.903 1.818-2.016 1.818v0c-1.114 0-2.016-0.814-2.016-1.818 0-0 0-0 0-0v0c0-1.004 0.903-1.818 2.016-1.818v0z"></path>
<path d="M23.412 6.098c-2.62-0.041-5.282 1.091-6.661 3.619l0.013 3.882 1.646 2.015 2.833-0.877-1.605 2.494 1.709 2.423-2.868-0.756-1.691 2.26 0.028 8.391c0 0 5.098-4.877 6.875-6.413 11.89-10.271 5.924-16.943-0.281-17.039zM21.822 8.824c1.114 0 2.016 0.814 2.016 1.818v0c0 0 0 0 0 0 0 1.004-0.903 1.818-2.016 1.818v0c-1.114 0-2.016-0.814-2.016-1.818 0-0 0-0 0-0v0c0-1.004 0.903-1.818 2.016-1.818v0zM25.709 10.359l0.088 3.64-5.351-0.614 4.649-0.088c-3.311-1.964-0.007-0.734 0-1.097l0.614-1.842z"></path>
<path d="M22.478 10.355c0 0.389-0.33 0.705-0.738 0.705s-0.738-0.315-0.738-0.705c0-0.389 0.33-0.705 0.738-0.705s0.738 0.315 0.738 0.705z"></path>
<path d="M7.409 13.51c0 0.644-0.281 1.165-0.628 1.165s-0.628-0.522-0.628-1.165c0-0.644 0.281-1.165 0.628-1.165s0.628 0.522 0.628 1.165z"></path>
</svg>
