<!-- Generated by IcoMoon.io -->
<svg version="1.1" xmlns="http://www.w3.org/2000/svg" width="32" height="32" viewBox="0 0 32 32">
<title>poly</title>
<path d="M16.472 6.251c-9.102-0.164-15.001 22.82-15.001 22.82h28.848c0 0-4.951-22.66-13.847-22.82zM16.96 14.405h4.794c0 0 0 0 0 0 0 0.932-0.477 1.746-1.187 2.186l-0.011 0.006c-0.344 0.213-0.757 0.339-1.198 0.339s-0.855-0.126-1.21-0.346l0.011 0.006c-0.721-0.446-1.198-1.26-1.198-2.192 0 0 0 0 0-0v0zM10.556 14.434h4.793c0 0 0 0 0 0 0 0.932-0.477 1.746-1.187 2.186l-0.011 0.006c-0.344 0.213-0.757 0.339-1.198 0.339s-0.855-0.126-1.21-0.346l0.011 0.006c-0.721-0.446-1.198-1.26-1.198-2.192 0 0 0 0 0-0v0zM10.765 20.417h10.848v2.598h-10.848v-2.598z"></path>
<path d="M12.201 15.399c0.018-0.093 0.055-0.191 0.111-0.282 0.177-0.29 0.498-0.443 0.83-0.43l0.005 0c0.164 0.006 0.337 0.055 0.494 0.152 0.249 0.152 0.411 0.389 0.468 0.643l0 0.001c0.050 0.223 0.018 0.46-0.106 0.665-0.108 0.177-0.269 0.302-0.453 0.371l0.003-0.001c-0.276 0.103-0.6 0.079-0.879-0.091-0.128-0.078-0.232-0.178-0.312-0.292l0.004 0.005 0.792-0.507z"></path>
<path d="M18.418 15.357c0.018-0.093 0.055-0.191 0.111-0.282 0.177-0.29 0.498-0.443 0.83-0.43l0.005 0c0.164 0.006 0.337 0.055 0.494 0.152 0.249 0.152 0.411 0.389 0.468 0.643l0 0.001c0.050 0.223 0.018 0.46-0.106 0.665-0.108 0.177-0.269 0.302-0.453 0.371l0.003-0.001c-0.276 0.103-0.6 0.079-0.879-0.091-0.128-0.078-0.232-0.178-0.312-0.292l0.004 0.005 0.792-0.507z"></path>
</svg>
