<!-- Generated by IcoMoon.io -->
<svg version="1.1" xmlns="http://www.w3.org/2000/svg" width="32" height="32" viewBox="0 0 32 32">
<title>square</title>
<path d="M2.508 3.455v7.133c0.642-0.227 1.389-0.361 2.172-0.365h0.002c0 0 0 0 0 0 3.201 0 5.796 2.171 5.796 4.849v0c0 0 0 0 0 0 0 2.678-2.595 4.849-5.796 4.849-0 0-0 0-0 0v0c-0.785-0.004-1.531-0.138-2.212-0.377l0.038 0.012v9.927h26.027v-11.363c-0.805 0.383-1.767 0.61-2.793 0.615h-0.002c-0 0-0 0-0 0-3.201 0-5.796-2.171-5.796-4.849v0c0 0 0 0 0 0 0-2.678 2.595-4.849 5.796-4.849 0 0 0 0 0 0v0c1.026 0.001 1.989 0.224 2.824 0.615l-0.029-0.013v-6.184h-26.027zM11.704 21.123h8.36l-5.239 5.072-3.121-5.072z"></path>
<path d="M7.747 16.034c0 1-0.811 1.811-1.811 1.811s-1.811-0.811-1.811-1.811c0-1 0.811-1.811 1.811-1.811s1.811 0.811 1.811 1.811z"></path>
<path d="M26.413 12.134c0 1-0.811 1.811-1.811 1.811s-1.811-0.811-1.811-1.811c0-1 0.811-1.811 1.811-1.811s1.811 0.811 1.811 1.811z"></path>
</svg>
