<!-- Generated by IcoMoon.io -->
<svg version="1.1" xmlns="http://www.w3.org/2000/svg" width="32" height="32" viewBox="0 0 32 32">
<title>star</title>
<path d="M15.79 0.787l-6.094 8.271-9.13 3.445 5.532 8.732 0.282 10.299 9.513-2.875 9.304 2.92 0.347-10.509 5.468-8.495-9.298-3.62-5.924-8.17zM24.911 12.407l-0.305 8.357-8.36-8.181-7.762 8.255-0.931-8.351 8.597 0.002-0.019-0.019 8.78-0.063zM13.509 20.037c0 0 0 0 0 0 1.046 0 1.894 0.919 1.894 2.052v0c0 1.133-0.848 2.052-1.894 2.052-0 0-0 0-0 0v0c-1.046-0-1.894-0.919-1.894-2.052v0c0-1.133 0.848-2.052 1.894-2.052v0zM8.247 24.489c0.305-0.029 2.494 0.46 8.454 2.019 0.724 0.189 1.273-1.85 1.273-1.85s-0.192 2.045-1.15 2.464c-0.929 0.406-2.878-0.631-2.878-0.631s-6.281-1.947-5.699-2.003z"></path>
<path d="M11.639 14.616c0 0.558-0.452 1.010-1.010 1.010s-1.010-0.452-1.010-1.010c0-0.558 0.452-1.010 1.010-1.010s1.010 0.452 1.010 1.010z"></path>
<path d="M22.563 14.642c0 0.558-0.452 1.010-1.010 1.010s-1.010-0.452-1.010-1.010c0-0.558 0.452-1.010 1.010-1.010s1.010 0.452 1.010 1.010z"></path>
</svg>
